<svg version="1.1" id="Layer_1" xmlns="http://www.w3.org/2000/svg" xmlns:xlink="http://www.w3.org/1999/xlink" x="0px" y="0px"
	 width="100%" viewBox="0 0 145 184" enable-background="new 0 0 145 184" xml:space="preserve">
<path fill="#FEFFFF" opacity="1.000000" stroke="none" 
	d="
M73.000000,185.000000 
	C48.666668,185.000000 24.833334,185.000000 1.000000,185.000000 
	C1.000000,123.666664 1.000000,62.333332 1.000000,1.000000 
	C49.333332,1.000000 97.666664,1.000000 146.000000,1.000000 
	C146.000000,62.333332 146.000000,123.666664 146.000000,185.000000 
	C121.833336,185.000000 97.666664,185.000000 73.000000,185.000000 
M42.435719,147.051147 
	C42.310303,147.364655 42.184883,147.678146 41.616859,148.527054 
	C40.413944,150.653305 39.211025,152.779572 37.744999,155.370895 
	C39.972614,156.486496 41.986378,157.494995 44.636406,158.962448 
	C48.403687,160.052231 52.170967,161.142014 56.611038,162.719101 
	C61.407909,162.774124 66.204781,162.829147 71.826317,163.004868 
	C81.106964,162.309021 89.744431,159.301086 97.433891,154.325226 
	C107.718307,147.670166 116.533386,139.472824 119.977219,126.310982 
	C117.680977,124.866905 115.384743,123.422836 112.662453,121.437668 
	C109.835274,119.935791 107.008102,118.433907 103.823830,116.334396 
	C100.564789,114.539146 97.305756,112.743889 93.626129,110.408241 
	C90.149513,108.485229 86.672905,106.562218 82.746384,104.133873 
	C78.220169,101.636055 73.693947,99.138237 68.744614,96.119949 
	C63.495453,93.170128 58.246288,90.220306 52.416981,86.852257 
	C46.495426,83.400612 40.573872,79.948967 34.368828,76.332085 
	C30.138746,83.707268 26.225899,90.529358 22.112041,97.701904 
	C25.880863,99.687630 29.358162,101.519753 33.240765,103.884537 
	C38.496235,106.847763 43.751701,109.810997 49.482021,113.303680 
	C53.599792,115.565781 57.717564,117.827881 62.191219,120.684273 
	C65.814430,122.706993 69.437637,124.729706 73.634048,127.147217 
	C76.119057,128.559814 78.604065,129.972397 81.547485,131.897598 
	C82.280655,132.436371 83.013832,132.975143 84.833580,134.312378 
	C79.301201,136.404526 74.673271,138.154648 69.147018,139.833344 
	C65.219032,139.518341 61.291050,139.203339 56.818493,138.405518 
	C54.363327,137.475006 51.908165,136.544495 48.989349,135.438263 
	C46.890167,139.360626 44.871517,143.132523 42.930168,146.948761 
	C42.930168,146.948761 42.930550,146.859650 42.435719,147.051147 
M95.763428,76.128662 
	C87.226997,71.291809 78.690575,66.454956 69.730507,61.109814 
	C64.619995,57.787277 59.509476,54.464745 54.755394,51.068527 
	C54.755394,51.068527 54.993336,50.793102 55.662693,50.616253 
	C66.705078,43.986923 77.941452,44.417591 89.261429,50.161804 
	C93.126480,43.389160 96.775719,36.994663 100.874268,29.812870 
	C96.526138,28.019836 92.778831,26.474562 88.503212,24.381250 
	C56.670422,14.688685 23.363956,36.780724 18.060558,59.747742 
	C22.304831,62.055065 26.654165,64.419502 31.476833,67.307602 
	C37.308846,70.562660 43.140858,73.817726 49.365257,77.629097 
	C57.881466,82.440880 66.397675,87.252663 75.332787,92.606133 
	C84.863678,98.097313 94.394569,103.588501 104.107010,109.184280 
	C108.315170,101.845375 112.168976,95.124474 116.325134,87.876259 
	C109.438019,84.033493 102.817444,80.339447 95.763428,76.128662 
z"/>
<path fill="#15CEE2" opacity="1.000000" stroke="none" 
	d="
M54.993336,50.793102 
	C54.993336,50.793102 54.755394,51.068527 54.176968,51.068962 
	C52.794884,51.197025 51.837189,51.085686 51.211334,51.489128 
	C44.752041,55.653011 38.319611,59.860779 31.967903,64.185860 
	C31.345377,64.609756 31.310919,65.897285 31.003500,66.783943 
	C26.654165,64.419502 22.304831,62.055065 18.060558,59.747742 
	C23.363956,36.780724 56.670422,14.688685 88.725708,25.010170 
	C88.295998,26.556747 87.837921,27.770426 86.961037,28.345493 
	C79.576904,33.188034 72.022224,37.775433 64.719406,42.734905 
	C61.252274,45.089497 58.221691,48.086906 54.993336,50.793102 
z"/>
<path fill="#23DDD7" opacity="1.000000" stroke="none" 
	d="
M70.154144,61.618095 
	C78.690575,66.454956 87.226997,71.291809 95.817413,76.725548 
	C95.202675,78.039291 94.640289,78.913750 93.848396,79.448059 
	C87.561516,83.690002 81.230995,87.867302 74.913879,92.064445 
	C66.397675,87.252663 57.881466,82.440880 49.341469,77.132355 
	C52.790649,74.937225 56.597649,73.689651 59.652084,71.426430 
	C63.475922,68.593102 66.681618,64.925552 70.154144,61.618095 
z"/>
<path fill="#2CE6D1" opacity="1.000000" stroke="none" 
	d="
M75.123337,92.335289 
	C81.230995,87.867302 87.561516,83.690002 93.848396,79.448059 
	C94.640289,78.913750 95.202675,78.039291 96.034126,76.983917 
	C102.817444,80.339447 109.438019,84.033493 116.325134,87.876259 
	C112.168976,95.124474 108.315170,101.845375 104.107010,109.184280 
	C94.394569,103.588501 84.863678,98.097313 75.123337,92.335289 
z"/>
<path fill="#3B8BF7" opacity="1.000000" stroke="none" 
	d="
M104.180923,116.932022 
	C107.008102,118.433907 109.835274,119.935791 112.514938,121.747009 
	C108.521378,124.595917 104.610710,127.043610 100.842384,129.693680 
	C92.330673,135.679565 83.858063,141.722305 75.429321,147.824493 
	C68.885399,152.562134 62.431927,157.424728 55.938248,162.231781 
	C52.170967,161.142014 48.403687,160.052231 44.721970,158.566437 
	C53.220131,152.081863 61.632732,145.993317 70.045334,139.904770 
	C74.673271,138.154648 79.301201,136.404526 84.833580,134.312378 
	C83.013832,132.975143 82.280655,132.436371 81.741783,131.542953 
	C83.658386,130.259430 85.459846,129.450928 87.088707,128.379913 
	C92.818146,124.612663 98.488281,120.755234 104.180923,116.932022 
z"/>
<path fill="#1AD4DD" opacity="1.000000" stroke="none" 
	d="
M69.942322,61.363953 
	C66.681618,64.925552 63.475922,68.593102 59.652084,71.426430 
	C56.597649,73.689651 52.790649,74.937225 49.145279,76.854202 
	C43.140858,73.817726 37.308846,70.562660 31.240166,67.045776 
	C31.310919,65.897285 31.345377,64.609756 31.967903,64.185860 
	C38.319611,59.860779 44.752041,55.653011 51.211334,51.489128 
	C51.837189,51.085686 52.794884,51.197025 53.998749,51.105804 
	C59.509476,54.464745 64.619995,57.787277 69.942322,61.363953 
z"/>
<path fill="#4384F8" opacity="1.000000" stroke="none" 
	d="
M56.274643,162.475433 
	C62.431927,157.424728 68.885399,152.562134 75.429321,147.824493 
	C83.858063,141.722305 92.330673,135.679565 100.842384,129.693680 
	C104.610710,127.043610 108.521378,124.595917 112.727966,122.017563 
	C115.384743,123.422836 117.680977,124.866905 119.625824,126.694366 
	C113.327881,131.074020 107.326500,134.991623 101.449310,139.087418 
	C94.791084,143.727509 88.130775,148.379349 81.691978,153.313950 
	C77.906876,156.214783 74.550728,159.675354 71.001648,162.884186 
	C66.204781,162.829147 61.407909,162.774124 56.274643,162.475433 
z"/>
<path fill="#1CD4DE" opacity="1.000000" stroke="none" 
	d="
M55.328014,50.704678 
	C58.221691,48.086906 61.252274,45.089497 64.719406,42.734905 
	C72.022224,37.775433 79.576904,33.188034 86.961037,28.345493 
	C87.837921,27.770426 88.295998,26.556747 88.989868,25.284187 
	C92.778831,26.474562 96.526138,28.019836 100.874268,29.812870 
	C96.775719,36.994663 93.126480,43.389160 89.261429,50.161804 
	C77.941452,44.417591 66.705078,43.986923 55.328014,50.704678 
z"/>
<path fill="#16B5EE" opacity="1.000000" stroke="none" 
	d="
M49.007172,112.774216 
	C43.751701,109.810997 38.496235,106.847763 33.194553,103.278969 
	C36.131554,100.731300 39.276123,98.993614 42.058628,96.797234 
	C45.849461,93.804924 49.364075,90.462685 52.997124,87.270485 
	C58.246288,90.220306 63.495453,93.170128 68.803581,96.716949 
	C65.773148,99.448761 62.570820,101.439804 59.623055,103.754967 
	C55.974060,106.620857 52.536228,109.755615 49.007172,112.774216 
z"/>
<path fill="#4A7EFA" opacity="1.000000" stroke="none" 
	d="
M71.413986,162.944519 
	C74.550728,159.675354 77.906876,156.214783 81.691978,153.313950 
	C88.130775,148.379349 94.791084,143.727509 101.449310,139.087418 
	C107.326500,134.991623 113.327881,131.074020 119.622429,127.045059 
	C116.533386,139.472824 107.718307,147.670166 97.433891,154.325226 
	C89.744431,159.301086 81.106964,162.309021 71.413986,162.944519 
z"/>
<path fill="#08C3EB" opacity="1.000000" stroke="none" 
	d="
M52.707054,87.061371 
	C49.364075,90.462685 45.849461,93.804924 42.058628,96.797234 
	C39.276123,98.993614 36.131554,100.731300 32.991901,103.012634 
	C29.358162,101.519753 25.880863,99.687630 22.112041,97.701904 
	C26.225899,90.529358 30.138746,83.707268 34.368828,76.332085 
	C40.573872,79.948967 46.495426,83.400612 52.707054,87.061371 
z"/>
<path fill="#22A8F1" opacity="1.000000" stroke="none" 
	d="
M49.244598,113.038948 
	C52.536228,109.755615 55.974060,106.620857 59.623055,103.754967 
	C62.570820,101.439804 65.773148,99.448761 69.015137,96.977188 
	C73.693947,99.138237 78.220169,101.636055 82.786926,104.701065 
	C75.830093,110.208824 68.832710,115.149399 61.835331,120.089981 
	C57.717564,117.827881 53.599792,115.565781 49.244598,113.038948 
z"/>
<path fill="#2D9CF3" opacity="1.000000" stroke="none" 
	d="
M62.013275,120.387123 
	C68.832710,115.149399 75.830093,110.208824 83.011887,104.953728 
	C86.672905,106.562218 90.149513,108.485229 93.680679,110.985573 
	C92.586784,112.489754 91.476372,113.469040 90.283409,114.334541 
	C84.554794,118.490700 78.803856,122.616096 73.060852,126.752419 
	C69.437637,124.729706 65.814430,122.706993 62.013275,120.387123 
z"/>
<path fill="#3594F5" opacity="1.000000" stroke="none" 
	d="
M69.596176,139.869049 
	C61.632732,145.993317 53.220131,152.081863 44.403839,158.336960 
	C41.986378,157.494995 39.972614,156.486496 37.744999,155.370895 
	C39.211025,152.779572 40.413944,150.653305 42.051781,148.130768 
	C42.747211,147.499985 42.895161,147.208389 42.930550,146.859650 
	C42.930550,146.859650 42.930168,146.948761 43.256329,146.925903 
	C44.302845,146.535934 45.045078,146.205872 45.739922,145.795547 
	C49.620632,143.503860 53.489891,141.192795 57.363064,138.888336 
	C61.291050,139.203339 65.219032,139.518341 69.596176,139.869049 
z"/>
<path fill="#3594F5" opacity="1.000000" stroke="none" 
	d="
M73.347450,126.949814 
	C78.803856,122.616096 84.554794,118.490700 90.283409,114.334541 
	C91.476372,113.469040 92.586784,112.489754 93.890976,111.255768 
	C97.305756,112.743889 100.564789,114.539146 104.002380,116.633209 
	C98.488281,120.755234 92.818146,124.612663 87.088707,128.379913 
	C85.459846,129.450928 83.658386,130.259430 81.512573,131.286652 
	C78.604065,129.972397 76.119057,128.559814 73.347450,126.949814 
z"/>
<path fill="#31A1F2" opacity="1.000000" stroke="none" 
	d="
M57.090778,138.646927 
	C53.489891,141.192795 49.620632,143.503860 45.739922,145.795547 
	C45.045078,146.205872 44.302845,146.535934 43.217674,146.903732 
	C44.871517,143.132523 46.890167,139.360626 48.989349,135.438263 
	C51.908165,136.544495 54.363327,137.475006 57.090778,138.646927 
z"/>
<path fill="#31A1F2" opacity="1.000000" stroke="none" 
	d="
M42.683136,146.955399 
	C42.895161,147.208389 42.747211,147.499985 42.273087,147.863068 
	C42.184883,147.678146 42.310303,147.364655 42.683136,146.955399 
z"/>
</svg>